<svg
  xmlns="http://www.w3.org/2000/svg"
  xmlns:xlink="http://www.w3.org/1999/xlink"
  version="1.1"
  id="Layer_1"
  x="0px"
  y="0px"
  style="enable-background: new 0 0 2500 2500"
  xml:space="preserve"
  viewBox="150 250 2100 2000"
>
  <g>
    <defs>
      <circle id="elastic-shape1" cx="1250" cy="1250" r="1000" />
    </defs>
    <clipPath id="elastic-clip1">
      <use xlink:href="#elastic-shape1" style="overflow: visible" />
    </clipPath>
    <path
      fill="#f0bf1a"
      clip-path="url(#elastic-clip1)"
      d="M1678.1,812.5H312.5c-34.4,0-62.5-28.1-62.5-62.5V312.5c0-34.4,28.1-62.5,62.5-62.5h1781.3   c34.4,0,62.5,28.1,62.5,62.5v21.9C2153.1,596.9,1940.6,812.5,1678.1,812.5z"
    />
  </g>
  <g>
    <defs>
      <circle id="elastic-shape2" cx="1250" cy="1250" r="1000" />
    </defs>
    <clipPath id="elastic-clip2">
      <use xlink:href="#elastic-shape2" style="overflow: visible" />
    </clipPath>
    <path
      fill="#3ebeb0"
      clip-path="url(#elastic-clip2)"
      d="M2159.4,2250H256.3v-562.5h1428.1c262.5,0,475,212.5,475,475V2250z"
    />
  </g>
  <g>
    <g>
      <defs>
        <circle id="elastic-shape3" cx="1250" cy="1250" r="1000" />
      </defs>
      <clipPath id="elastic-clip3">
        <use xlink:href="#elastic-shape3" style="overflow: visible" />
      </clipPath>
      <path
        fill="#07a5de"
        clip-path="url(#elastic-clip3)"
        d="M1565.6,1531.3H150V968.8h1415.6c156.3,0,281.3,125,281.3,281.3S1718.8,1531.3,1565.6,1531.3z"
      />
    </g>
  </g>
  <g>
    <g>
      <defs>
        <circle id="elastic-shape4" cx="1250" cy="1250" r="1000" />
      </defs>
      <clipPath id="elastic-clip4">
        <use xlink:href="#elastic-shape4" style="overflow: visible" />
      </clipPath>
      <path
        fill="#231f20"
        clip-path="url(#elastic-clip4)"
        d="M1125,968.8H200v562.5h925c21.9-84.4,34.4-178.1,34.4-281.3S1146.9,1053.1,1125,968.8z"
      />
    </g>
  </g>
  <path
    fill="#d7a229"
    d="M746.9,384.4c-168.8,100-309.4,250-396.9,428.1h737.5C1012.5,640.6,893.7,496.9,746.9,384.4z"
  />
  <path
    fill="#019b8f"
    d="M778.1,2131.3c143.8-115.6,259.4-268.8,331.3-443.8H350C443.8,1875,593.8,2031.3,778.1,2131.3z"
  />
  <path fill="none" d="M0,0h2500v2500H0V0z" />
</svg>
