<svg
  xmlns="http://www.w3.org/2000/svg"
  width="900.000000pt"
  height="900.000000pt"
  viewBox="0 0 900.000000 900.000000"
  preserveAspectRatio="xMidYMid meet"
>
  <metadata>Created by potrace 1.16, written by Peter Selinger 2001-2019</metadata>
  <g
    fill="#ebdbb2"
    transform="translate(0.000000,900.000000) scale(0.100000,-0.100000)"
    stroke="none"
  >
    <path
      d="M4150 8274 c-19 -2 -78 -9 -130 -15 -1489 -167 -2749 -1193 -3214 -2618 -78 -237 -128 -465 -168 -761 -21 -152 -17 -762 5 -920 80 -558 248 -1039 522 -1494 265 -441 660 -861 1090 -1163 240 -169 587 -352 857 -452 163 -61 241 -68 318 -28 85 43 85 40 88 460 3 348 2 367 -15 367 -10 0 -54 -7 -98 -15 -126 -23 -318 -30 -431 -15 -239 30 -424 114 -573 261 -84 84 -134 160 -196 299 -117 263 -249 433 -430 552 -72 48 -138 110 -148 140 -9 26 27 55 85 69 107 25 277 -19 409 -106 100 -67 189 -162 276 -294 154 -235 311 -346 543 -382 137 -21 333 7 509 73 l64 24 19 95 c32 159 109 305 203 388 21 18 35 34 32 37 -2 3 -61 13 -130 24 -937 144 -1427 582 -1566 1401 -49 283 -48 583 0 808 49 225 164 464 306 634 l40 48 -28 83 c-77 221 -76 502 2 785 12 40 29 94 40 118 l19 46 108 -6 c118 -5 217 -28 362 -83 122 -47 331 -155 461 -239 l102 -67 111 25 c241 55 426 81 683 98 312 21 672 -13 1048 -97 l111 -25 104 66 c147 92 395 214 525 258 141 47 238 67 331 67 l75 0 19 -44 c10 -24 27 -77 39 -117 77 -282 79 -559 3 -783 l-27 -84 42 -48 c136 -155 235 -345 287 -554 41 -161 50 -244 49 -455 -3 -717 -227 -1219 -676 -1518 -229 -153 -532 -257 -926 -317 -68 -11 -126 -21 -128 -24 -2 -2 18 -32 46 -66 94 -117 155 -262 185 -439 13 -79 16 -192 16 -690 0 -404 4 -609 11 -636 23 -83 122 -145 207 -129 53 10 213 66 338 120 1004 429 1777 1264 2120 2289 152 455 214 879 201 1370 -9 309 -41 555 -112 836 -338 1340 -1405 2398 -2763 2738 -329 82 -499 102 -892 106 -179 2 -341 1 -360 -1z"
    />
  </g>
</svg>
