<svg
  aria-label="Go and Rust programming language logos"
  x="0px"
  y="0px"
  viewBox="0 0 420.00001 116.7"
  xml:space="preserve"
  width="420"
  height="116.7"
  xmlns:xlink="http://www.w3.org/1999/xlink"
  xmlns="http://www.w3.org/2000/svg"
  xmlns:svg="http://www.w3.org/2000/svg"
>
  <defs id="defs14">
    <mask id="holes">
      <rect x="-60" y="-60" width="120" height="120" fill="#ffffff" id="rect35" />
      <circle id="hole" cy="-40" r="3" cx="0" />
      <use xlink:href="#hole" transform="rotate(72)" id="use36" />
      <use xlink:href="#hole" transform="rotate(144)" id="use37" />
      <use xlink:href="#hole" transform="rotate(-144)" id="use38" />
      <use xlink:href="#hole" transform="rotate(-72)" id="use39" />
    </mask>
  </defs>
  <g id="g14" transform="translate(0,20.034327)">
    <g id="g3">
      <g id="g2">
        <g id="g1">
          <path
            fill="#ebdbb2"
            d="M 15.5,23.2 C 15.1,23.2 15,23 15.2,22.7 L 17.3,20 c 0.2,-0.3 0.7,-0.5 1.1,-0.5 h 35.7 c 0.4,0 0.5,0.3 0.3,0.6 l -1.7,2.6 c -0.2,0.3 -0.7,0.6 -1,0.6 z"
            id="path1"
          />
        </g>
      </g>
    </g>
    <g id="g6">
      <g id="g5">
        <g id="g4">
          <path
            fill="#ebdbb2"
            d="M 0.4,32.4 C 0,32.4 -0.1,32.2 0.1,31.9 l 2.1,-2.7 c 0.2,-0.3 0.7,-0.5 1.1,-0.5 h 45.6 c 0.4,0 0.6,0.3 0.5,0.6 l -0.8,2.4 c -0.1,0.4 -0.5,0.6 -0.9,0.6 z"
            id="path3"
          />
        </g>
      </g>
    </g>
    <g id="g9">
      <g id="g8">
        <g id="g7">
          <path
            fill="#ebdbb2"
            d="m 24.6,41.6 c -0.4,0 -0.5,-0.3 -0.3,-0.6 l 1.4,-2.5 c 0.2,-0.3 0.6,-0.6 1,-0.6 h 20 c 0.4,0 0.6,0.3 0.6,0.7 L 47.1,41 c 0,0.4 -0.4,0.7 -0.7,0.7 z"
            id="path6"
          />
        </g>
      </g>
    </g>
    <g id="g13">
      <g id="CXHf1q_3_">
        <g id="g12">
          <g id="g10">
            <path
              fill="#ebdbb2"
              d="m 128.4,21.4 c -6.3,1.6 -10.6,2.8 -16.8,4.4 -1.5,0.4 -1.6,0.5 -2.9,-1 -1.5,-1.7 -2.6,-2.8 -4.7,-3.8 -6.3,-3.1 -12.4,-2.2 -18.1,1.5 -6.8,4.4 -10.3,10.9 -10.2,19 0.1,8 5.6,14.6 13.5,15.7 6.8,0.9 12.5,-1.5 17,-6.6 0.9,-1.1 1.7,-2.3 2.7,-3.7 -3.6,0 -8.1,0 -19.3,0 -2.1,0 -2.6,-1.3 -1.9,-3 1.3,-3.1 3.7,-8.3 5.1,-10.9 0.3,-0.6 1,-1.6 2.5,-1.6 5.1,0 23.9,0 36.4,0 -0.2,2.7 -0.2,5.4 -0.6,8.1 -1.1,7.2 -3.8,13.8 -8.2,19.6 -7.2,9.5 -16.6,15.4 -28.5,17 C 84.6,77.4 75.5,75.5 67.5,69.5 60.1,63.9 55.9,56.5 54.8,47.3 53.5,36.4 56.7,26.6 63.3,18 70.4,8.7 79.8,2.8 91.3,0.7 c 9.4,-1.7 18.4,-0.6 26.5,4.9 5.3,3.5 9.1,8.3 11.6,14.1 0.6,0.9 0.2,1.4 -1,1.7 z"
              id="path9"
            />
          </g>
          <g id="g11">
            <path
              fill="#ebdbb2"
              d="m 161.5,76.7 c -9.1,-0.2 -17.4,-2.8 -24.4,-8.8 -5.9,-5.1 -9.6,-11.6 -10.8,-19.3 -1.8,-11.3 1.3,-21.3 8.1,-30.2 7.3,-9.6 16.1,-14.6 28,-16.7 10.2,-1.8 19.8,-0.8 28.5,5.1 7.9,5.4 12.8,12.7 14.1,22.3 1.7,13.5 -2.2,24.5 -11.5,33.9 -6.6,6.7 -14.7,10.9 -24,12.8 -2.7,0.5 -5.4,0.6 -8,0.9 z M 185.3,36.3 C 185.2,35 185.2,34 185,33 183.2,23.1 174.1,17.5 164.6,19.7 c -9.3,2.1 -15.3,8 -17.5,17.4 -1.8,7.8 2,15.7 9.2,18.9 5.5,2.4 11,2.1 16.3,-0.6 7.9,-4.1 12.2,-10.5 12.7,-19.1 z"
              id="path10"
            />
          </g>
        </g>
      </g>
    </g>
  </g>
  <g id="logo" transform="matrix(1.1075772,0,0,1.1114316,308.14764,58.350001)">
    <path
      id="r"
      transform="translate(0.5,0.5)"
      fill="#ebdbb2"
      stroke="#ebdbb2"
      stroke-width="1"
      stroke-linejoin="round"
      d="M -9,-15 H 4 c 8,0 8,8 0,8 H -9 Z M -40,22 H 0 V 11 H -9 V 3 H 1 C 12,3 6,22 15,22 H 40 V 3 h -6 v 2 c 0,8 -9,7 -10,2 -1,-5 -5,-9 -6,-9 15,-8 6,-24 -6,-24 h -47 v 11 h 10 v 26 h -15 z"
    />
    <g id="gear" mask="url(#holes)">
      <circle r="43" fill="none" stroke="#ebdbb2" stroke-width="9" id="circle1" cx="0" cy="0" />
      <g id="cogs">
        <polygon
          id="cog"
          stroke="#ebdbb2"
          stroke-width="3"
          stroke-linejoin="round"
          points="46,-3 46,3 51,0 "
        />
        <use xlink:href="#cog" transform="rotate(11.25)" id="use1" />
        <use xlink:href="#cog" transform="rotate(22.5)" id="use2" />
        <use xlink:href="#cog" transform="rotate(33.75)" id="use3" />
        <use xlink:href="#cog" transform="rotate(45)" id="use4" />
        <use xlink:href="#cog" transform="rotate(56.25)" id="use5" />
        <use xlink:href="#cog" transform="rotate(67.5)" id="use6" />
        <use xlink:href="#cog" transform="rotate(78.75)" id="use7" />
        <use xlink:href="#cog" transform="rotate(90)" id="use8" />
        <use xlink:href="#cog" transform="rotate(101.25)" id="use9" />
        <use xlink:href="#cog" transform="rotate(112.5)" id="use10" />
        <use xlink:href="#cog" transform="rotate(123.75)" id="use11" />
        <use xlink:href="#cog" transform="rotate(135)" id="use12" />
        <use xlink:href="#cog" transform="rotate(146.25)" id="use13" />
        <use xlink:href="#cog" transform="rotate(157.5)" id="use14" />
        <use xlink:href="#cog" transform="rotate(168.75)" id="use15" />
        <use xlink:href="#cog" transform="scale(-1)" id="use16" />
        <use xlink:href="#cog" transform="rotate(-168.75)" id="use17" />
        <use xlink:href="#cog" transform="rotate(-157.5)" id="use18" />
        <use xlink:href="#cog" transform="rotate(-146.25)" id="use19" />
        <use xlink:href="#cog" transform="rotate(-135)" id="use20" />
        <use xlink:href="#cog" transform="rotate(-123.75)" id="use21" />
        <use xlink:href="#cog" transform="rotate(-112.5)" id="use22" />
        <use xlink:href="#cog" transform="rotate(-101.25)" id="use23" />
        <use xlink:href="#cog" transform="rotate(-90)" id="use24" />
        <use xlink:href="#cog" transform="rotate(-78.75)" id="use25" />
        <use xlink:href="#cog" transform="rotate(-67.5)" id="use26" />
        <use xlink:href="#cog" transform="rotate(-56.25)" id="use27" />
        <use xlink:href="#cog" transform="rotate(-45)" id="use28" />
        <use xlink:href="#cog" transform="rotate(-33.75)" id="use29" />
        <use xlink:href="#cog" transform="rotate(-22.5)" id="use30" />
        <use xlink:href="#cog" transform="rotate(-11.25)" id="use31" />
      </g>
      <g id="mounts">
        <polygon
          id="mount"
          fill="#ebdbb2"
          stroke="#ebdbb2"
          stroke-width="6"
          stroke-linejoin="round"
          points="7,-42 -7,-42 0,-35 "
        />
        <use xlink:href="#mount" transform="rotate(72)" id="use32" />
        <use xlink:href="#mount" transform="rotate(144)" id="use33" />
        <use xlink:href="#mount" transform="rotate(-144)" id="use34" />
        <use xlink:href="#mount" transform="rotate(-72)" id="use35" />
      </g>
    </g>
    <mask id="mask43">
      <rect x="-60" y="-60" width="120" height="120" fill="#ffffff" id="rect1" />
      <circle id="circle2" cy="-40" r="3" cx="0" />
      <use xlink:href="#hole" transform="rotate(72)" id="use40" />
      <use xlink:href="#hole" transform="rotate(144)" id="use41" />
      <use xlink:href="#hole" transform="rotate(-144)" id="use42" />
      <use xlink:href="#hole" transform="rotate(-72)" id="use43" />
    </mask>
  </g>
</svg>
