<svg viewBox="89.945 -105 210 200" width="210px" height="200px">
  <rect
    width="14"
    height="50"
    x="152.985"
    y="-61.581"
    id="rect3018"
    style="fill-opacity: 1; stroke: none; display: inline; fill: rgb(255, 255, 255)"
  />
  <rect
    width="14"
    height="31"
    x="175.985"
    y="-42.581"
    id="rect3026"
    style="fill-opacity: 1; stroke: none; display: inline; fill: rgb(255, 255, 255)"
  />
  <rect
    width="14"
    height="12"
    x="175.985"
    y="-61.581"
    id="rect3028"
    style="fill-opacity: 1; stroke: none; display: inline; fill: rgb(255, 255, 255)"
  />
  <path
    d="M 198.985 -61.581 L 198.985 -42.581 L 198.985 -31.581 L 198.985 -23.612 L 198.985 -11.581 L 213.009 -11.581 L 222.931 -11.581 C 230.685 -11.581 236.985 -18.522 236.985 -27.081 C 236.985 -35.641 230.685 -42.581 222.931 -42.581 L 213.009 -42.581 L 213.009 -61.581 L 198.985 -61.581 Z M 213.009 -31.581 L 218.956 -31.581 C 221.156 -31.581 222.931 -29.78 222.931 -27.581 C 222.931 -25.382 221.156 -23.612 218.956 -23.612 L 213.009 -23.612 L 213.009 -31.581 Z"
    id="rect3030"
    style="fill-opacity: 1; stroke: none; display: inline; fill: rgb(255, 255, 255)"
  />
  <path
    d="M 104.02523,1.064e-5 C 96.288603,1.064e-5 90.001343,6.9403116 90.001343,15.5 c 0,0.1068 -0.001,0.2081 0,0.3125 2.1e-4,0.021 -5e-4,0.041 0,0.062 l 0,18.25 c -0.003,0.1274 0,0.2468 0,0.375 0,8.5596 6.28726,15.5 14.023887,15.5 l 9.90113,0 1.15565,0 12.83711,0 1.15565,0 9.90113,0 c 7.73674,0 14.024,-6.9404 14.024,-15.5 0,-8.5597 -6.28726,-15.5 -14.024,-15.5 l -5.62209,0 -2.24884,0 -11.11925,0 0,11 11.11925,0 2.24884,0 1.65539,0 c 2.19557,0 3.9667,1.8012 3.9667,4 0,2.1988 -1.77113,3.9687 -3.9667,3.9687 l -3.90423,0 -2.0302,0 -1.15565,0 -12.83711,0 -1.15565,0 -2.0302,0 -3.90424,0 c -2.15389,0 -3.90122,-1.7031 -3.96669,-3.8437 l 0,-18.25 0,-0.062 c 0.0976,-2.1109 1.83403,-3.7813 3.96669,-3.7813 l 3.90424,0 2.0302,0 6.05936,0 0,0.031 30.98398,0 0,-12.06248936 -23.05058,0 -7.9334,0 -6.05936,0 -9.90113,0 z"
    id="rect3030-3"
    style="fill: #e74a45; fill-opacity: 1; stroke: none; display: inline"
  />
  <path
    d="m 159.9999,-8.936e-5 0,12.05498936 25.34216,0 8.71621,0 5.1801,0 2.0162,0 3.87732,0 c 2.11797,0 3.84248,1.6693 3.93936,3.7789 l 0,0.062 0,18.2386 c -0.065,2.1393 -1.80031,3.8413 -3.93936,3.8413 l -3.87732,0 -2.0162,0 -8.90233,0 -4.99398,0 -11.44585,0 0,-18.9569 -13.89631,0 0,18.9569 0,8.2137 0,3.8101 25.34216,0 4.99398,0 8.90233,0 9.83288,0 c 7.68341,0 13.92733,-6.936 13.92733,-15.4903 0,-0.1281 0.003,-0.2474 0,-0.3748 l 0,-18.2386 c 4.9e-4,-0.021 -2.1e-4,-0.042 0,-0.062 9.9e-4,-0.1043 0,-0.2055 0,-0.3123 0,-8.5542884 -6.24392,-15.49028939 -13.92733,-15.49028939 l -9.83288,0 -5.1801,0 0,-0.031 -34.05837,0 z"
    id="rect3030-3-4-2"
    style="fill: #e74a45; fill-opacity: 1; stroke: none; display: inline"
  />
  <path
    d="m 222.99599,1.064e-5 19.44141,0 L 261.4999,19.0625 280.5624,1.064e-5 l 19.4375,0 -25,24.99998936 25,25 -19.4375,0 L 261.4999,30.9375 242.4374,50 222.9999,50 247.99599,25 z"
    id="path4169"
    style="fill: #e74a45; stroke: none; display: inline"
  />
</svg>
