<svg
  xmlns="http://www.w3.org/2000/svg"
  width="1150.000000pt"
  height="1150.000000pt"
  viewBox="0 0 1150.000000 1150.000000"
  preserveAspectRatio="xMidYMid meet"
>
  <g
    fill="#ebdbb2"
    transform="translate(0.000000,1150.000000) scale(0.100000,-0.100000)"
    stroke="none"
  >
    <path
      d="M1538 10550 c-296 -73 -513 -273 -588 -542 -20 -72 -20 -86 -20 -4199 0 -4035 0 -4127 19 -4201 78 -305 322 -546 625 -618 83 -20 128 -20 4207 -18 l4124 3 80 28 c271 95 471 330 529 622 15 73 16 455 14 4220 l-3 4140 -27 80 c-40 116 -92 199 -183 290 -87 87 -179 142 -310 187 l-70 23 -4160 2 c-4054 2 -4162 1 -4237 -17z m1917 -1606 c40 -8 111 -34 165 -60 170 -84 294 -239 352 -439 18 -65 23 -105 23 -215 0 -158 -14 -222 -77 -350 -59 -120 -178 -239 -298 -297 -109 -53 -180 -72 -305 -79 -352 -22 -632 160 -741 481 -39 115 -46 313 -15 435 62 249 230 431 469 507 126 40 280 46 427 17z m4083 -2015 c626 -68 1066 -428 1266 -1034 70 -212 103 -409 116 -700 5 -110 10 -746 10 -1412 l0 -1213 -685 0 -684 0 -4 1278 c-3 1400 -1 1357 -63 1541 -60 178 -170 321 -301 389 -184 97 -473 98 -659 4 -224 -113 -393 -350 -424 -593 -6 -54 -10 -531 -10 -1351 l0 -1268 -685 0 -685 0 0 2135 0 2135 685 0 685 0 0 -295 c0 -162 3 -295 8 -295 4 1 39 44 77 97 287 395 660 588 1143 592 62 1 156 -4 210 -10z m-3638 -2224 l0 -2135 -685 0 -685 0 0 2135 0 2135 685 0 685 0 0 -2135z"
    />
  </g>
</svg>
