<svg
    xmlns="http://www.w3.org/2000/svg"
    version="1.1"
    x="0px"
    y="0px"
    viewBox="0 0 44.74 44.74"
    style="enable-background: new 0 0 44.74 44.74"
    fill="#00509E"
>
    <g>
        <rect fill="#ffffff" x="10" y="10" width="24.74" height="24.74"/>
        <path
            d="M33.08,0H11.02C4.94,0,0,4.94,0,11.02v22.06C0,39.17,4.94,44.1,11.02,44.1h22.06
        c6.09,0,11.02-4.94,11.02-11.02V11.02C44.1,4.94,39.17,0,33.08,0z M33.08,33.08H11.02V11.02h22.06V33.08z"
        />
        <path
            d="M21.98,12.93c-5,0-9.05,4.05-9.05,9.05c0,5,4.05,9.05,9.05,9.05c5,0,9.05-4.05,9.05-9.05
        C31.02,16.98,26.97,12.93,21.98,12.93z"
        />
    </g>
</svg>
