<?xml version="1.0" encoding="utf-8"?>
<svg viewBox="8.7 17.9 75 75" width="75px" height="75px" xmlns="http://www.w3.org/2000/svg">
  <path style="fill:#fff;fill-opacity:1;fill-rule:nonzero;stroke:none" d="M412.949 314c-12.554-3.555-40.832-9.352-81.269-9.352-39.684 0-72.11 6.793-72.211 14.793-.067 5.321 6.367 7.641 6.367 7.641l-1.145.664c-19.003-3.359-36.656-8.551-36.554-16.324.176-14.106 54.117-24.699 103.465-24.699 41.953 0 82.246 7.039 100.421 16.261zM278.84 270.391c-8.813-1.754-28.02-6.164-28.02-15.504 0-12.938 41.094-22.848 80.766-22.848 54.59 0 76.949 14.047 77.961 14.774l-22.699 13.132c-9.653-2.3-25.918-5.914-55.207-5.914-32.688 0-53.985 5.598-53.985 11.727 0 1.301.813 2.844 2.328 3.972zm223.074 87.054c-1.527-29.297-28.594-47.539-55.648-62.953l2.453-1.414c28.867 8.121 80.375 31.77 76.117 68.121-2.121 18.129-18.691 31.082-40.293 31.082-6.727 0-12.711-1.187-17.563-2.664l-.015-.047-1.024-2.578c19.321 3.781 36.977-10.328 35.973-29.547zM330.84 185.516c75.937.66 160.902 15.523 160.683 40.504-.039 4.527-2.988 7.628-5.55 9.503l-1.246-.714c-7.02-19.352-66.356-33.649-154.016-34.414-56.563-.493-134.914 13.058-135.051 28.718-.137 15.7 37.117 24.328 37.117 24.328l-2.632 1.504c-24.965-3.437-70.965-15.394-70.813-32.656.219-24.957 105.938-37.348 171.508-36.773zm-7.899-17.836c-30.183-.266-67.039 2.234-98.043 7.445l-2.871-1.652c30.883-9.055 73.879-14.524 121.125-14.114 92.786.813 168.012 23.821 169.5 51.512l-1.074.625c-6.219-7.59-46.351-42.574-188.637-43.816zM206.703 364.125c0 13.996 53.09 21.848 77.809 23.75l2.359-1.363c-9.496-1.727-47.594-8.446-47.594-17.211 0-9.543 58.434-15.797 92.352-15.797 57.609 0 96.769 8.719 107.301 11.594l14.734-8.575c-10.09-4.941-53.41-17.89-122.031-17.89-76.266 0-124.93 14.922-124.93 25.492" transform="matrix(0.13333, 0, 0, -0.13333, 0, 109.880001)"/>
  <path style="fill:#fff;fill-opacity:1;fill-rule:nonzero;stroke:none" d="m437.172 559.75-1.277.73c-23.196-7.769-94.59-35.949-94.59-88.492 0-29.718 29.019-46.175 29.019-74.043 0-9.941-5.613-19.261-10.183-24.832l2.297-1.328c12.078 7.852 33.464 24.852 33.464 46.801 0 18.586-25.726 40.918-25.726 64.809 0 37.644 49.637 67.179 66.996 76.355zm-35.047 68.867c0-77.765-106.57-107.523-106.57-162.812 0-38.813 25.738-63.153 39.976-78.539l-1.156-.668c-17.977 11.246-65.277 39.507-65.277 86.191 0 65.539 122.406 96.856 122.406 171.301 0 9.16-1.356 16.18-2.305 19.969l1.239.714c3.878-4.875 11.687-17.062 11.687-36.156" transform="matrix(0.13333, 0, 0, -0.13333, 0, 109.880001)"/>
</svg>